<svg width="210" height="26" viewBox="0 0 210 26" fill="none" xmlns="http://www.w3.org/2000/svg">
<path d="M123.084 11.4188C123.084 9.80849 123.447 8.36393 124.173 7.08514C124.9 5.79056 125.886 4.78015 127.133 4.05393C128.396 3.3277 129.794 2.96459 131.325 2.96459C133.125 2.96459 134.696 3.39875 136.038 4.26706C137.38 5.13537 138.358 6.3668 138.974 7.96134H136.393C135.935 6.96673 135.272 6.20103 134.404 5.66426C133.551 5.12748 132.525 4.85909 131.325 4.85909C130.173 4.85909 129.139 5.12748 128.223 5.66426C127.307 6.20103 126.589 6.96673 126.068 7.96134C125.547 8.94017 125.286 10.0927 125.286 11.4188C125.286 12.7292 125.547 13.8817 126.068 14.8763C126.589 15.8551 127.307 16.6129 128.223 17.1497C129.139 17.6865 130.173 17.9549 131.325 17.9549C132.525 17.9549 133.551 17.6944 134.404 17.1734C135.272 16.6366 135.935 15.8709 136.393 14.8763H138.974C138.358 16.455 137.38 17.6786 136.038 18.5469C134.696 19.3994 133.125 19.8257 131.325 19.8257C129.794 19.8257 128.396 19.4705 127.133 18.76C125.886 18.0338 124.9 17.0313 124.173 15.7525C123.447 14.4737 123.084 13.0291 123.084 11.4188Z" fill="#2D2D2D"/>
<path d="M146.895 19.8967C145.679 19.8967 144.574 19.6204 143.579 19.0679C142.6 18.5153 141.827 17.7338 141.258 16.7234C140.706 15.6972 140.43 14.5132 140.43 13.1712C140.43 11.8451 140.714 10.6768 141.282 9.6664C141.866 8.64021 142.656 7.85872 143.65 7.32195C144.645 6.76938 145.758 6.4931 146.989 6.4931C148.221 6.4931 149.334 6.76938 150.328 7.32195C151.323 7.85872 152.105 8.63231 152.673 9.64272C153.257 10.6531 153.549 11.8293 153.549 13.1712C153.549 14.5132 153.249 15.6972 152.649 16.7234C152.065 17.7338 151.268 18.5153 150.257 19.0679C149.247 19.6204 148.126 19.8967 146.895 19.8967ZM146.895 18.0022C147.668 18.0022 148.394 17.8207 149.073 17.4575C149.752 17.0944 150.297 16.5498 150.707 15.8235C151.134 15.0973 151.347 14.2132 151.347 13.1712C151.347 12.1293 151.141 11.2452 150.731 10.5189C150.321 9.7927 149.784 9.25592 149.121 8.9086C148.458 8.54548 147.739 8.36393 146.966 8.36393C146.176 8.36393 145.45 8.54548 144.787 8.9086C144.14 9.25592 143.619 9.7927 143.224 10.5189C142.829 11.2452 142.632 12.1293 142.632 13.1712C142.632 14.229 142.821 15.121 143.2 15.8472C143.595 16.5734 144.116 17.1181 144.763 17.4812C145.411 17.8286 146.121 18.0022 146.895 18.0022Z" fill="#2D2D2D"/>
<path d="M171.041 6.46942C172.052 6.46942 172.952 6.68255 173.741 7.10882C174.53 7.51929 175.154 8.1429 175.612 8.97964C176.07 9.81638 176.298 10.8347 176.298 12.0345V19.6836H174.167V12.3424C174.167 11.0478 173.844 10.0611 173.196 9.38222C172.565 8.68757 171.704 8.34024 170.615 8.34024C169.494 8.34024 168.602 8.70336 167.939 9.42958C167.276 10.14 166.944 11.1741 166.944 12.5318V19.6836H164.813V12.3424C164.813 11.0478 164.489 10.0611 163.842 9.38222C163.211 8.68757 162.35 8.34024 161.261 8.34024C160.14 8.34024 159.248 8.70336 158.585 9.42958C157.922 10.14 157.59 11.1741 157.59 12.5318V19.6836H155.435V6.70623H157.59V8.57706C158.017 7.89819 158.585 7.3772 159.295 7.01409C160.022 6.65098 160.819 6.46942 161.687 6.46942C162.776 6.46942 163.739 6.71413 164.576 7.20354C165.413 7.69296 166.037 8.41129 166.447 9.35854C166.81 8.44286 167.41 7.73242 168.247 7.22722C169.084 6.72202 170.015 6.46942 171.041 6.46942Z" fill="#2D2D2D"/>
<path d="M181.041 9.09805C181.467 8.35603 182.099 7.74032 182.936 7.2509C183.788 6.7457 184.775 6.4931 185.896 6.4931C187.048 6.4931 188.09 6.76938 189.022 7.32195C189.969 7.87451 190.711 8.656 191.248 9.6664C191.785 10.661 192.053 11.8214 192.053 13.1476C192.053 14.4579 191.785 15.6262 191.248 16.6524C190.711 17.6786 189.969 18.4758 189.022 19.0442C188.09 19.6125 187.048 19.8967 185.896 19.8967C184.791 19.8967 183.812 19.652 182.959 19.1626C182.123 18.6574 181.483 18.0338 181.041 17.2918V25.8407H178.886V6.70623H181.041V9.09805ZM189.851 13.1476C189.851 12.1687 189.653 11.3162 189.259 10.59C188.864 9.86374 188.327 9.31118 187.648 8.93228C186.985 8.55338 186.251 8.36393 185.446 8.36393C184.657 8.36393 183.922 8.56127 183.244 8.95596C182.58 9.33486 182.044 9.89532 181.633 10.6373C181.239 11.3636 181.041 12.2082 181.041 13.1712C181.041 14.1501 181.239 15.0105 181.633 15.7525C182.044 16.4787 182.58 17.0392 183.244 17.4339C183.922 17.8128 184.657 18.0022 185.446 18.0022C186.251 18.0022 186.985 17.8128 187.648 17.4339C188.327 17.0392 188.864 16.4787 189.259 15.7525C189.653 15.0105 189.851 14.1422 189.851 13.1476Z" fill="#2D2D2D"/>
<path d="M196.097 2.15942V19.6836H193.942V2.15942H196.097Z" fill="#2D2D2D"/>
<path d="M210 6.70623L202.186 25.7934H199.96L202.517 19.5415L197.284 6.70623H199.675L203.749 17.2207L207.774 6.70623H210Z" fill="#2D2D2D"/>
<path d="M38.2145 2.15942L31.4766 20.232H34.0328L35.5041 16.1778H43.6372L45.1085 20.232H47.6647L40.9268 2.15942H38.2163H38.2145ZM36.3302 13.9336L39.5582 5.02586L42.8111 13.9336H36.3302Z" fill="#2D2D2D"/>
<path d="M59.0507 9.5445C57.941 7.84094 56.3136 6.98828 54.197 6.98828C52.3641 6.98828 50.7882 7.63354 49.5242 8.95065C48.2585 10.2412 47.6133 11.8171 47.6133 13.7014C47.6133 15.5858 48.2585 17.1617 49.5242 18.4771C50.7899 19.7942 52.3641 20.4394 54.197 20.4394C56.2888 20.4394 57.9144 19.5868 59.0507 17.8566V19.6896C59.0507 22.143 57.4233 23.6391 54.7395 23.6391C52.6477 23.6391 51.2278 22.9159 50.5311 21.4711L48.5688 22.5808C49.6271 24.6212 51.7968 25.7309 54.6881 25.7309C56.4944 25.7309 58.0438 25.1885 59.3361 24.1302C60.6266 23.0719 61.2718 21.6005 61.2718 19.6896V7.32332H59.0507V9.5445ZM57.7336 16.9809C56.8561 17.8584 55.7712 18.298 54.4541 18.298C53.137 18.298 52.0521 17.8584 51.1746 16.9809C50.2971 16.1034 49.8575 15.0186 49.8575 13.7014C49.8575 12.3843 50.2971 11.326 51.1746 10.4486C52.0521 9.57109 53.137 9.13146 54.4541 9.13146C55.7712 9.13146 56.8561 9.57109 57.7336 10.4486C58.611 11.326 59.0507 12.4109 59.0507 13.7014C59.0507 14.992 58.611 16.1034 57.7336 16.9809Z" fill="#2D2D2D"/>
<path d="M69.79 6.98835C67.8028 6.98835 66.1755 7.6336 64.9098 8.92412C63.6441 10.2146 63.0254 11.842 63.0254 13.7777C63.0254 15.7135 63.6706 17.3657 64.9363 18.6579C66.2269 19.9236 67.9056 20.5689 69.946 20.5689C72.4756 20.5689 74.3617 19.5868 75.6256 17.6511L73.7147 16.5662C72.94 17.8319 71.7009 18.4505 69.9974 18.4505C67.544 18.4505 65.7624 17.1086 65.3246 14.8094H76.1433C76.1947 14.4744 76.2213 14.1376 76.2213 13.8026C76.2213 11.9182 75.6274 10.3175 74.4131 9.00034C73.2254 7.65842 71.6761 6.98657 69.7917 6.98657L69.79 6.98835ZM65.3228 12.8488C65.7092 10.5763 67.388 9.10493 69.79 9.10493C71.8551 9.10493 73.5587 10.3954 73.9469 12.8488H65.3228Z" fill="#2D2D2D"/>
<path d="M84.2987 6.98828C82.4143 6.98828 81.0192 7.71154 80.1151 9.18287V7.32332H77.8691V20.2338H80.1151V13.3912C80.1151 10.5 81.6131 9.13146 83.8591 9.13146C85.848 9.13146 87.0605 10.344 87.0605 12.4357V20.2338H89.3065V12.3081C89.3065 9.02864 87.3193 6.99005 84.2969 6.99005L84.2987 6.98828Z" fill="#2D2D2D"/>
<path d="M97.5687 18.3494C96.2782 18.3494 95.1933 17.9098 94.3158 17.0323C93.4631 16.1548 93.0253 15.07 93.0253 13.7794C93.0253 12.4889 93.4649 11.3775 94.3158 10.5C95.1933 9.62249 96.2782 9.18287 97.5687 9.18287C99.2988 9.18287 100.744 10.0869 101.391 11.4555L103.275 10.3706C102.268 8.30539 100.125 6.98828 97.5687 6.98828C95.6329 6.98828 94.0056 7.63354 92.7151 8.95065C91.4246 10.2412 90.7793 11.8419 90.7793 13.7794C90.7793 15.717 91.4246 17.316 92.7151 18.6331C94.0056 19.9236 95.6329 20.5688 97.5687 20.5688C100.074 20.5688 102.268 19.2517 103.378 17.2131L101.467 16.1034C100.744 17.472 99.2988 18.3494 97.5687 18.3494Z" fill="#2D2D2D"/>
<path d="M113.706 7.32324L109.988 17.4435L105.599 7.32324H103.197L108.826 20.1805L108.593 20.6716C107.845 22.5559 106.682 23.4334 105.108 23.3058V25.3976C107.689 25.5784 109.73 23.951 110.839 21.0332L116.106 7.32324H113.704H113.706Z" fill="#2D2D2D"/>
<path d="M12.5896 0.159424C5.64778 0.159424 0 5.80898 0 12.7508C0 16.2058 1.37029 19.4268 3.86091 21.8234L4.74548 22.6743L8.76948 18.6503C8.76948 18.6503 8.77835 18.6556 8.78189 18.6574L10.6166 16.8227C10.6166 16.8227 10.6078 16.8191 10.6042 16.8156L12.5896 14.8302L14.575 16.8156C13.9759 17.1116 13.3005 17.2765 12.5896 17.2765C12.5683 17.2765 12.5471 17.2765 12.524 17.2765L10.3773 19.425C11.074 19.6572 11.8167 19.7831 12.5896 19.7831C13.9971 19.7831 15.3089 19.3665 16.4098 18.6521L20.432 22.6761L21.3166 21.8252C23.8054 19.4285 25.1792 16.2076 25.1792 12.7526C25.181 5.80898 19.5315 0.159424 12.5896 0.159424ZM12.5896 11.2866L8.74467 15.1315C8.31213 14.4402 8.06395 13.623 8.06395 12.7508C8.06395 10.2549 10.0937 8.22338 12.5914 8.22338C15.0891 8.22338 17.1188 10.2531 17.1188 12.7508C17.1188 13.6248 16.8707 14.442 16.4381 15.1333L12.5932 11.2866H12.5896ZM20.416 19.1148L18.2374 16.9344C19.1078 15.7662 19.6219 14.3179 19.6219 12.7508C19.6219 8.87395 16.4683 5.71857 12.5896 5.71857C8.71098 5.71857 5.55915 8.87395 5.55915 12.7508C5.55915 14.3179 6.07323 15.7644 6.94361 16.9344L4.76321 19.1148C3.29897 17.3226 2.50481 15.1049 2.50481 12.7508C2.50481 7.18813 7.0287 2.66423 12.5896 2.66423C18.1505 2.66423 22.6744 7.1899 22.6744 12.7508C22.6744 15.1049 21.8803 17.3226 20.416 19.1148Z" fill="#2D2D2D"/>
</svg>
