<svg width="210" height="26" viewBox="0 0 210 26" fill="none" xmlns="http://www.w3.org/2000/svg">
<path d="M123.084 11.2594C123.084 9.64906 123.447 8.2045 124.173 6.92571C124.9 5.63113 125.886 4.62073 127.133 3.8945C128.396 3.16828 129.794 2.80516 131.325 2.80516C133.125 2.80516 134.696 3.23932 136.038 4.10764C137.38 4.97595 138.358 6.20738 138.974 7.80192H136.393C135.935 6.80731 135.272 6.04161 134.404 5.50483C133.551 4.96806 132.525 4.69967 131.325 4.69967C130.173 4.69967 129.139 4.96806 128.223 5.50483C127.307 6.04161 126.589 6.80731 126.068 7.80192C125.547 8.78075 125.286 9.93324 125.286 11.2594C125.286 12.5698 125.547 13.7222 126.068 14.7169C126.589 15.6957 127.307 16.4535 128.223 16.9903C129.139 17.527 130.173 17.7954 131.325 17.7954C132.525 17.7954 133.551 17.5349 134.404 17.0139C135.272 16.4772 135.935 15.7115 136.393 14.7169H138.974C138.358 16.2956 137.38 17.5192 136.038 18.3875C134.696 19.24 133.125 19.6663 131.325 19.6663C129.794 19.6663 128.396 19.311 127.133 18.6006C125.886 17.8744 124.9 16.8719 124.173 15.5931C123.447 14.3143 123.084 12.8697 123.084 11.2594Z" fill="white"/>
<path d="M146.895 19.7373C145.679 19.7373 144.574 19.461 143.579 18.9085C142.6 18.3559 141.827 17.5744 141.258 16.564C140.706 15.5378 140.43 14.3537 140.43 13.0118C140.43 11.6857 140.714 10.5174 141.282 9.50697C141.866 8.48078 142.656 7.6993 143.65 7.16252C144.645 6.60996 145.758 6.33368 146.989 6.33368C148.221 6.33368 149.334 6.60996 150.328 7.16252C151.323 7.6993 152.105 8.47289 152.673 9.48329C153.257 10.4937 153.549 11.6699 153.549 13.0118C153.549 14.3537 153.249 15.5378 152.649 16.564C152.065 17.5744 151.268 18.3559 150.257 18.9085C149.247 19.461 148.126 19.7373 146.895 19.7373ZM146.895 17.8428C147.668 17.8428 148.394 17.6612 149.073 17.2981C149.752 16.935 150.297 16.3903 150.707 15.6641C151.134 14.9379 151.347 14.0538 151.347 13.0118C151.347 11.9698 151.141 11.0857 150.731 10.3595C150.321 9.63327 149.784 9.0965 149.121 8.74917C148.458 8.38606 147.739 8.2045 146.966 8.2045C146.176 8.2045 145.45 8.38606 144.787 8.74917C144.14 9.0965 143.619 9.63327 143.224 10.3595C142.829 11.0857 142.632 11.9698 142.632 13.0118C142.632 14.0696 142.821 14.9616 143.2 15.6878C143.595 16.414 144.116 16.9587 144.763 17.3218C145.411 17.6691 146.121 17.8428 146.895 17.8428Z" fill="white"/>
<path d="M171.041 6.31C172.052 6.31 172.952 6.52313 173.741 6.94939C174.53 7.35987 175.154 7.98348 175.612 8.82022C176.07 9.65696 176.298 10.6753 176.298 11.8751V19.5242H174.167V12.183C174.167 10.8884 173.844 9.90166 173.196 9.2228C172.565 8.52815 171.704 8.18082 170.615 8.18082C169.494 8.18082 168.602 8.54393 167.939 9.27016C167.276 9.9806 166.944 11.0147 166.944 12.3724V19.5242H164.813V12.183C164.813 10.8884 164.489 9.90166 163.842 9.2228C163.211 8.52815 162.35 8.18082 161.261 8.18082C160.14 8.18082 159.248 8.54393 158.585 9.27016C157.922 9.9806 157.59 11.0147 157.59 12.3724V19.5242H155.435V6.54681H157.59V8.41763C158.017 7.73877 158.585 7.21778 159.295 6.85467C160.022 6.49155 160.819 6.31 161.687 6.31C162.776 6.31 163.739 6.5547 164.576 7.04412C165.413 7.53353 166.037 8.25186 166.447 9.19912C166.81 8.28344 167.41 7.573 168.247 7.0678C169.084 6.5626 170.015 6.31 171.041 6.31Z" fill="white"/>
<path d="M181.041 8.93862C181.467 8.19661 182.099 7.58089 182.936 7.09148C183.788 6.58628 184.775 6.33368 185.896 6.33368C187.048 6.33368 188.09 6.60996 189.022 7.16252C189.969 7.71509 190.711 8.49657 191.248 9.50697C191.785 10.5016 192.053 11.662 192.053 12.9881C192.053 14.2985 191.785 15.4668 191.248 16.493C190.711 17.5192 189.969 18.3164 189.022 18.8848C188.09 19.4531 187.048 19.7373 185.896 19.7373C184.791 19.7373 183.812 19.4926 182.959 19.0032C182.123 18.498 181.483 17.8744 181.041 17.1324V25.6813H178.886V6.54681H181.041V8.93862ZM189.851 12.9881C189.851 12.0093 189.653 11.1568 189.259 10.4305C188.864 9.70432 188.327 9.15175 187.648 8.77285C186.985 8.39395 186.251 8.2045 185.446 8.2045C184.657 8.2045 183.922 8.40185 183.244 8.79654C182.58 9.17544 182.044 9.73589 181.633 10.4779C181.239 11.2041 181.041 12.0488 181.041 13.0118C181.041 13.9906 181.239 14.8511 181.633 15.5931C182.044 16.3193 182.58 16.8798 183.244 17.2744C183.922 17.6533 184.657 17.8428 185.446 17.8428C186.251 17.8428 186.985 17.6533 187.648 17.2744C188.327 16.8798 188.864 16.3193 189.259 15.5931C189.653 14.8511 189.851 13.9827 189.851 12.9881Z" fill="white"/>
<path d="M196.097 2V19.5242H193.942V2H196.097Z" fill="white"/>
<path d="M210 6.54681L202.186 25.6339H199.96L202.517 19.3821L197.284 6.54681H199.675L203.749 17.0613L207.774 6.54681H210Z" fill="white"/>
<path d="M38.2145 2L31.4766 20.0725H34.0328L35.5041 16.0184H43.6372L45.1085 20.0725H47.6647L40.9268 2H38.2163H38.2145ZM36.3302 13.7742L39.5582 4.86644L42.8111 13.7742H36.3302Z" fill="white"/>
<path d="M59.0507 9.38501C57.941 7.68146 56.3136 6.8288 54.197 6.8288C52.3641 6.8288 50.7882 7.47405 49.5242 8.79116C48.2585 10.0817 47.6133 11.6576 47.6133 13.542C47.6133 15.4263 48.2585 17.0022 49.5242 18.3176C50.7899 19.6347 52.3641 20.2799 54.197 20.2799C56.2888 20.2799 57.9144 19.4273 59.0507 17.6971V19.5301C59.0507 21.9835 57.4233 23.4796 54.7395 23.4796C52.6477 23.4796 51.2278 22.7564 50.5311 21.3116L48.5688 22.4214C49.6271 24.4617 51.7968 25.5714 54.6881 25.5714C56.4944 25.5714 58.0438 25.029 59.3361 23.9707C60.6266 22.9124 61.2718 21.4411 61.2718 19.5301V7.16383H59.0507V9.38501ZM57.7336 16.8214C56.8561 17.6989 55.7712 18.1385 54.4541 18.1385C53.137 18.1385 52.0521 17.6989 51.1746 16.8214C50.2971 15.944 49.8575 14.8591 49.8575 13.542C49.8575 12.2249 50.2971 11.1666 51.1746 10.2891C52.0521 9.4116 53.137 8.97198 54.4541 8.97198C55.7712 8.97198 56.8561 9.4116 57.7336 10.2891C58.611 11.1666 59.0507 12.2514 59.0507 13.542C59.0507 14.8325 58.611 15.944 57.7336 16.8214Z" fill="white"/>
<path d="M69.79 6.8288C67.8028 6.8288 66.1755 7.47406 64.9098 8.76457C63.6441 10.0551 63.0254 11.6824 63.0254 13.6182C63.0254 15.554 63.6706 17.2061 64.9363 18.4984C66.2269 19.7641 67.9056 20.4094 69.946 20.4094C72.4756 20.4094 74.3617 19.4273 75.6256 17.4915L73.7147 16.4066C72.94 17.6723 71.7009 18.291 69.9974 18.291C67.544 18.291 65.7624 16.9491 65.3246 14.6499H76.1433C76.1947 14.3149 76.2213 13.978 76.2213 13.643C76.2213 11.7586 75.6274 10.1579 74.4131 8.8408C73.2254 7.49887 71.6761 6.82703 69.7917 6.82703L69.79 6.8288ZM65.3228 12.6893C65.7092 10.4167 67.388 8.94539 69.79 8.94539C71.8551 8.94539 73.5587 10.2359 73.9469 12.6893H65.3228Z" fill="white"/>
<path d="M84.2987 6.8288C82.4143 6.8288 81.0192 7.55205 80.1151 9.02338V7.16383H77.8691V20.0743H80.1151V13.2317C80.1151 10.3405 81.6131 8.97198 83.8591 8.97198C85.848 8.97198 87.0605 10.1845 87.0605 12.2763V20.0743H89.3065V12.1486C89.3065 8.86916 87.3193 6.83057 84.2969 6.83057L84.2987 6.8288Z" fill="white"/>
<path d="M97.5687 18.1899C96.2782 18.1899 95.1933 17.7503 94.3158 16.8728C93.4631 15.9954 93.0253 14.9105 93.0253 13.62C93.0253 12.3294 93.4649 11.218 94.3158 10.3405C95.1933 9.46301 96.2782 9.02338 97.5687 9.02338C99.2988 9.02338 100.744 9.92745 101.391 11.296L103.275 10.2111C102.268 8.1459 100.125 6.8288 97.5687 6.8288C95.6329 6.8288 94.0056 7.47405 92.7151 8.79116C91.4246 10.0817 90.7793 11.6824 90.7793 13.62C90.7793 15.5575 91.4246 17.1565 92.7151 18.4736C94.0056 19.7641 95.6329 20.4094 97.5687 20.4094C100.074 20.4094 102.268 19.0922 103.378 17.0537L101.467 15.944C100.744 17.3125 99.2988 18.1899 97.5687 18.1899Z" fill="white"/>
<path d="M113.706 7.16382L109.988 17.2841L105.599 7.16382H103.197L108.826 20.0211L108.593 20.5122C107.845 22.3965 106.682 23.274 105.108 23.1464V25.2381C107.689 25.4189 109.73 23.7916 110.839 20.8738L116.106 7.16382H113.704H113.706Z" fill="white"/>
<path d="M12.5896 0C5.64778 0 0 5.64955 0 12.5914C0 16.0464 1.37029 19.2673 3.86091 21.664L4.74548 22.5149L8.76948 18.4909C8.76948 18.4909 8.77835 18.4962 8.78189 18.498L10.6166 16.6633C10.6166 16.6633 10.6078 16.6597 10.6042 16.6562L12.5896 14.6708L14.575 16.6562C13.9759 16.9522 13.3005 17.1171 12.5896 17.1171C12.5683 17.1171 12.5471 17.1171 12.524 17.1171L10.3773 19.2656C11.074 19.4978 11.8167 19.6236 12.5896 19.6236C13.9971 19.6236 15.3089 19.2071 16.4098 18.4927L20.432 22.5167L21.3166 21.6658C23.8054 19.2691 25.1792 16.0481 25.1792 12.5932C25.181 5.64955 19.5315 0 12.5896 0ZM12.5896 11.1272L8.74467 14.9721C8.31213 14.2808 8.06395 13.4636 8.06395 12.5914C8.06395 10.0955 10.0937 8.06395 12.5914 8.06395C15.0891 8.06395 17.1188 10.0937 17.1188 12.5914C17.1188 13.4653 16.8707 14.2825 16.4381 14.9739L12.5932 11.1272H12.5896ZM20.416 18.9553L18.2374 16.7749C19.1078 15.6067 19.6219 14.1585 19.6219 12.5914C19.6219 8.71453 16.4683 5.55915 12.5896 5.55915C8.71098 5.55915 5.55915 8.71453 5.55915 12.5914C5.55915 14.1585 6.07323 15.605 6.94361 16.7749L4.76321 18.9553C3.29897 17.1632 2.50481 14.9455 2.50481 12.5914C2.50481 7.0287 7.0287 2.50481 12.5896 2.50481C18.1505 2.50481 22.6744 7.03048 22.6744 12.5914C22.6744 14.9455 21.8803 17.1632 20.416 18.9553Z" fill="white"/>
</svg>
