<svg width="100" height="42" viewBox="0 0 100 42" fill="none" xmlns="http://www.w3.org/2000/svg">
<path d="M10.9242 33.8138V24.949H16.9782C23.1859 24.949 27.6385 20.7362 27.6385 14.3069C27.6385 8.31668 23.1419 3.97192 16.8904 3.97192H3.9707V33.8138H10.9242ZM10.9242 10.1596H16.6052C18.8864 10.1596 20.6853 12.2223 20.6853 14.3069C20.6853 16.8302 18.8646 18.7832 16.6052 18.7832H10.9242V10.1596Z" fill="#A239ED"/>
<path d="M38.1319 34.538C45.3484 34.538 50.3277 29.14 50.3277 22.4476C50.3277 15.7989 45.3484 10.3572 38.1538 10.3572C31.0032 10.3572 26.0676 15.8208 26.0676 22.4476C26.0676 29.1182 31.0251 34.538 38.1319 34.538ZM38.1979 28.3062C35.0171 28.3062 32.7581 25.9144 32.7581 22.4476C32.7581 19.0026 35.0171 16.589 38.1979 16.589C41.3782 16.589 43.6377 19.0026 43.6377 22.4476C43.6377 25.9144 41.3782 28.3062 38.1979 28.3062Z" fill="#A239ED"/>
<path d="M57.6188 41.5815V33.8577L57.4873 31.115C58.9128 33.1336 61.3697 34.56 64.287 34.56C70.6263 34.56 75.1229 29.1183 75.1229 22.4477C75.1229 15.8431 70.6919 10.3792 64.1774 10.3792C61.5449 10.3792 58.9569 11.5861 57.2898 13.956V11.0814H50.8628V41.5815H57.6188ZM63.0149 28.3504C60.0975 28.3504 57.5529 25.9586 57.5529 22.4477C57.5529 19.1561 59.9657 16.5672 62.9708 16.5672C65.976 16.5672 68.4547 18.7833 68.4547 22.4477C68.4547 26.2877 65.8882 28.3504 63.0149 28.3504Z" fill="#A239ED"/>
<path d="M82.4137 41.5815V33.8577L82.2822 31.115C83.7078 33.1336 86.1646 34.56 89.082 34.56C95.4212 34.56 99.9178 29.1183 99.9178 22.4477C99.9178 15.8431 95.4868 10.3792 88.9723 10.3792C86.3399 10.3792 83.7518 11.5861 82.0848 13.956V11.0814H75.6577V41.5815H82.4137ZM87.8098 28.3504C84.8925 28.3504 82.3478 25.9586 82.3478 22.4477C82.3478 19.1561 84.7606 16.5672 87.7657 16.5672C90.7709 16.5672 93.2496 18.7833 93.2496 22.4477C93.2496 26.2877 90.6831 28.3504 87.8098 28.3504Z" fill="#A239ED"/>
<path d="M6.95347 29.8419V20.9771H13.0075C19.2152 20.9771 23.6678 16.7643 23.6678 10.3349C23.6678 4.34475 19.1712 0 12.9197 0H0V29.8419H6.95347ZM6.95347 6.18771H12.6344C14.9157 6.18771 16.7146 8.25039 16.7146 10.3349C16.7146 12.8583 14.8939 14.8113 12.6344 14.8113H6.95347V6.18771Z" fill="white"/>
<path d="M34.1612 30.5661C41.3777 30.5661 46.357 25.1681 46.357 18.4757C46.357 11.827 41.3777 6.38525 34.1831 6.38525C27.0325 6.38525 22.0969 11.8488 22.0969 18.4757C22.0969 25.1462 27.0544 30.5661 34.1612 30.5661ZM34.2272 24.3343C31.0464 24.3343 28.7874 21.9425 28.7874 18.4757C28.7874 15.0307 31.0464 12.617 34.2272 12.617C37.4075 12.617 39.667 15.0307 39.667 18.4757C39.667 21.9425 37.4075 24.3343 34.2272 24.3343Z" fill="white"/>
<path d="M53.6481 37.6093V29.8856L53.5166 27.1428C54.9421 29.1614 57.399 30.5878 60.3163 30.5878C66.6556 30.5878 71.1522 25.1461 71.1522 18.4755C71.1522 11.8709 66.7212 6.40698 60.2067 6.40698C57.5742 6.40698 54.9862 7.61397 53.3191 9.98387V7.10924H46.8921V37.6093H53.6481ZM59.0442 24.3782C56.1268 24.3782 53.5822 21.9865 53.5822 18.4755C53.5822 15.184 55.995 12.595 59.0001 12.595C62.0053 12.595 64.484 14.8111 64.484 18.4755C64.484 22.3155 61.9175 24.3782 59.0442 24.3782Z" fill="white"/>
<path d="M78.443 37.6093V29.8856L78.3115 27.1428C79.7371 29.1614 82.1939 30.5878 85.1113 30.5878C91.4505 30.5878 95.9471 25.1461 95.9471 18.4755C95.9471 11.8709 91.5161 6.40698 85.0016 6.40698C82.3692 6.40698 79.7811 7.61397 78.1141 9.98387V7.10924H71.687V37.6093H78.443ZM83.8391 24.3782C80.9218 24.3782 78.3771 21.9865 78.3771 18.4755C78.3771 15.184 80.7899 12.595 83.795 12.595C86.8002 12.595 89.2789 14.8111 89.2789 18.4755C89.2789 22.3155 86.7124 24.3782 83.8391 24.3782Z" fill="white"/>
</svg>
