<svg xmlns="http://www.w3.org/2000/svg" xmlns:xlink="http://www.w3.org/1999/xlink" width="400" zoomAndPan="magnify" viewBox="0 0 300 149.999998" height="200" preserveAspectRatio="xMidYMid meet" version="1.0"><path fill="#222d3a" d="M 29.742188 62.167969 L 25.921875 62.167969 C 16.386719 62.167969 9.34375 68.828125 9.34375 77.742188 C 9.34375 88.554688 17.628906 93.316406 23.773438 93.316406 L 29.734375 93.316406 L 29.734375 98.546875 L 23.773438 98.546875 C 12.144531 98.546875 3.5 89.632812 3.5 77.742188 C 3.5 67.640625 11.785156 56.9375 25.324219 56.9375 L 29.742188 56.9375 Z M 29.742188 62.167969 " fill-opacity="1" fill-rule="nonzero"/><path fill="#222d3a" d="M 35.222656 56.9375 L 40.46875 56.9375 L 40.46875 98.546875 L 35.222656 98.546875 Z M 35.222656 56.9375 " fill-opacity="1" fill-rule="nonzero"/><path fill="#222d3a" d="M 61.039062 69.421875 C 68.972656 69.421875 75.878906 75.492188 75.878906 84.285156 C 75.878906 93.082031 68.960938 99.148438 61.039062 99.148438 C 53.105469 99.148438 46.1875 93.089844 46.1875 84.285156 C 46.195312 75.480469 53.113281 69.421875 61.039062 69.421875 Z M 61.039062 94.152344 C 66.460938 94.152344 70.398438 90.109375 70.398438 84.285156 C 70.398438 78.460938 66.460938 74.417969 61.039062 74.417969 C 55.613281 74.417969 51.675781 78.460938 51.675781 84.285156 C 51.675781 90.109375 55.613281 94.152344 61.039062 94.152344 Z M 61.039062 94.152344 " fill-opacity="1" fill-rule="nonzero"/><path fill="#222d3a" d="M 104.75 70.019531 L 104.75 86.664062 C 104.75 94.152344 99.503906 99.140625 92.527344 99.140625 C 85.550781 99.140625 80.304688 94.144531 80.304688 86.664062 L 80.304688 70.019531 L 85.550781 70.019531 L 85.550781 86.664062 C 85.550781 91.066406 88.773438 94.152344 92.527344 94.152344 C 96.28125 94.152344 99.503906 91.066406 99.503906 86.664062 L 99.503906 70.019531 Z M 104.75 70.019531 " fill-opacity="1" fill-rule="nonzero"/><path fill="#222d3a" d="M 138.195312 56.9375 L 138.195312 83.449219 C 138.195312 92.839844 132.175781 99.140625 123.765625 99.140625 C 114.460938 99.140625 108.980469 92.011719 108.980469 83.566406 C 108.980469 75.597656 115.417969 69.421875 122.757812 69.421875 C 125.621094 69.421875 128.363281 70.019531 130.867188 71.449219 L 130.867188 76.914062 C 128.960938 75.609375 126.039062 74.417969 123.65625 74.417969 C 117.988281 74.417969 114.234375 78.34375 114.234375 84.226562 C 114.234375 90.050781 118.171875 94.152344 123.773438 94.152344 C 128.785156 94.152344 132.957031 90.34375 132.957031 82.503906 L 132.957031 56.9375 Z M 138.195312 56.9375 " fill-opacity="1" fill-rule="nonzero"/><path fill="#222d3a" d="M 168.132812 66.929688 L 163.78125 66.929688 C 157.941406 66.929688 153.40625 70.4375 153.40625 77.75 C 153.40625 85.066406 157.941406 88.5625 163.78125 88.5625 L 168.132812 88.5625 L 168.132812 98.546875 L 161.867188 98.546875 C 150.660156 98.546875 142.550781 89.15625 142.550781 77.742188 C 142.550781 66.328125 150.660156 56.9375 161.867188 56.9375 L 168.132812 56.9375 Z M 168.132812 66.929688 " fill-opacity="1" fill-rule="nonzero"/><path fill="#222d3a" d="M 186.96875 68.945312 C 194.960938 68.945312 201.9375 75.785156 201.9375 84.101562 C 201.9375 92.421875 194.960938 99.257812 186.96875 99.257812 C 178.976562 99.257812 172 92.421875 172 84.101562 C 172 75.785156 178.984375 68.945312 186.96875 68.945312 Z M 186.96875 90.226562 C 190.308594 90.226562 192.753906 87.433594 192.753906 84.101562 C 192.753906 80.769531 190.308594 77.976562 186.96875 77.976562 C 183.628906 77.976562 181.183594 80.769531 181.183594 84.101562 C 181.183594 87.433594 183.636719 90.226562 186.96875 90.226562 Z M 186.96875 90.226562 " fill-opacity="1" fill-rule="nonzero"/><path fill="#222d3a" d="M 230.4375 69.65625 L 224 91.417969 C 222.925781 95.039062 221.554688 99.265625 216.789062 99.265625 C 211.601562 99.265625 210.230469 95.703125 209.097656 91.417969 L 203.195312 69.65625 L 212.800781 69.65625 L 216.796875 88.679688 L 216.914062 88.679688 L 220.734375 69.65625 Z M 230.4375 69.65625 " fill-opacity="1" fill-rule="nonzero"/><path fill="#222d3a" d="M 246.238281 88.027344 L 242.601562 82.320312 L 250.410156 77.207031 C 248.980469 76.3125 247.847656 76.195312 246.714844 76.195312 C 242.777344 76.195312 240.636719 80.175781 240.636719 83.625 C 240.636719 87.191406 243.199219 90.9375 247.078125 90.9375 C 250.652344 90.9375 254.171875 87.792969 255.605469 84.460938 L 262.464844 87.96875 C 259.71875 94.503906 253.640625 99.257812 246.421875 99.257812 C 238.429688 99.257812 231.453125 92.421875 231.453125 84.101562 C 231.453125 75.785156 238.429688 68.945312 246.421875 68.945312 C 253.09375 68.945312 257.511719 72.511719 260.609375 78.160156 Z M 246.238281 88.027344 " fill-opacity="1" fill-rule="nonzero"/><path fill="#222d3a" d="M 273.664062 74.476562 L 273.78125 74.476562 C 275.207031 70.378906 277.953125 69.667969 282.125 69.667969 L 282.125 78.34375 C 275.507812 78.578125 274.914062 80.011719 274.914062 84.996094 L 274.914062 98.546875 L 265.378906 98.546875 L 265.378906 69.65625 L 273.664062 69.65625 Z M 273.664062 74.476562 " fill-opacity="1" fill-rule="nonzero"/><path fill="#222d3a" d="M 283.039062 93.199219 C 283.039062 89.867188 285.726562 87.132812 289.117188 87.132812 C 292.519531 87.132812 295.203125 89.867188 295.203125 93.199219 C 295.203125 96.53125 292.519531 99.257812 289.117188 99.257812 C 285.71875 99.257812 283.039062 96.53125 283.039062 93.199219 Z M 283.039062 93.199219 " fill-opacity="1" fill-rule="nonzero"/></svg>